<svg id="Capa_1" enable-background="new 0 0 512.001 512.001" height="512" viewBox="0 0 512.001 512.001" width="512" xmlns="http://www.w3.org/2000/svg"><g><g><path d="m376.993 472.506h-242c-18.079 0-32.31-15.427-30.855-33.447l27.842-344.827c3.592-44.484 40.741-78.755 85.37-78.755h77.287c44.629 0 81.778 34.27 85.37 78.755l27.842 344.827c1.454 18.02-12.777 33.447-30.856 33.447z" fill="#ffe5c2"/><path d="m407.848 439.059-27.842-344.827c-3.592-44.484-40.741-78.755-85.37-78.755h-22.764c44.629 0 81.778 34.27 85.37 78.755l27.842 344.827c1.455 18.02-12.777 33.447-30.855 33.447h22.763c18.08 0 32.311-15.427 30.856-33.447z" fill="#fed2a4"/><path d="m362.585 426.528c-3.452 12.559-4.086 25.742-1.841 38.583l6.682 39.388h-222.866l6.682-39.388c2.244-12.841 1.61-26.024-1.842-38.583l-1.681-6.149c-2.093-7.628-3.16-15.498-3.16-23.408v-96.791h222.866v96.791c0 7.91-1.067 15.78-3.16 23.408z" fill="#fe99a0"/><path d="m364.266 420.379c2.093-7.628 3.16-15.498 3.16-23.408v-22.158l-22.764 22.158c0 7.91-1.067 15.78-3.16 23.408l-1.681 6.149c-3.452 12.559-4.086 25.742-1.841 38.583l6.682 39.388h22.764l-6.682-39.388c-2.244-12.841-1.61-26.024 1.842-38.583z" fill="#fd8087"/><path d="m144.563 300.178-53.208-48.098c-7.109-6.426-11.165-15.561-11.165-25.144v-151.391h-50.57l-10.86 163.55c-1.411 21.25 6.487 42.064 21.64 57.029l13.878 13.705 42.461 40.983z" fill="#ffbd86"/><path d="m91.355 252.08c-7.109-6.426-11.165-15.561-11.165-25.144v-151.391h-50.57l-.001.021h27.786v151.391c0 9.583 4.056 18.718 11.165 25.144l53.208 48.098-36.948 39.12 11.909 11.494 47.824-50.635z" fill="#f6a96c"/><path d="m144.563 396.972-81.617-78.776 48.009-48.399 19.748 17.851c8.921 8.064 20.518 12.529 32.544 12.529h15.474z" fill="#fe99a0"/><path d="m148.901 298.01-8.46 2.17c-12.03 0-23.62-4.47-32.54-12.53l-7.73-6.98 10.78-10.87 19.75 17.85c5.279 4.77 11.51 8.29 18.2 10.36z" fill="#fd8087"/><path d="m291.358 288.838v-29.625h-70.73v29.625c0 6.264-5.078 11.342-11.342 11.342l-22.057.001v17.576c0 25.136 20.376 45.512 45.512 45.512h46.504c25.136 0 45.512-20.376 45.512-45.512v-17.576s-12.374 0-22.058-.001c-6.264 0-11.341-5.078-11.341-11.342z" fill="#ffbd86"/><path d="m302.699 300.18c-6.264 0-11.341-5.078-11.341-11.342v-29.625h-20.479v29.625c0 6.264 5.077 11.342 11.341 11.342 9.684 0 22.058.001 22.058.001v17.576c0 25.135-20.376 45.512-45.512 45.512h20.479c25.135 0 45.512-20.376 45.512-45.512v-17.576s-12.374 0-22.058-.001z" fill="#f6a96c"/><path d="m29.62 75.545-5.367-15.015c-1.442-4.034-2.179-8.285-2.179-12.569v-32.327c0-4.492 3.642-8.134 8.134-8.134h41.7c4.484 0 8.122 3.629 8.134 8.113l.148 59.932z" fill="#ffbd86"/><path d="m80.041 15.613c-.011-4.484-3.649-8.113-8.133-8.113h-22.764c4.484 0 8.122 3.629 8.134 8.113l.148 59.932h22.764z" fill="#f6a96c"/><circle cx="345.234" cy="172.544" fill="#ffbd86" r="36.478"/><path d="m345.234 136.066c-3.38 0-6.648.469-9.754 1.33 15.408 4.267 26.724 18.382 26.724 35.148s-11.316 30.881-26.724 35.148c3.106.86 6.375 1.33 9.754 1.33 20.146 0 36.478-16.332 36.478-36.478s-16.332-36.478-36.478-36.478z" fill="#f6a96c"/><path d="m205.5 172.54c0 20.15-16.33 36.48-36.48 36.48-7.11 0-13.74-2.03-19.34-5.54-10.29-6.45-17.14-17.89-17.14-30.94 0-12.36 6.15-23.28 15.55-29.87 5.92-4.16 13.14-6.6 20.93-6.6 20.15 0 36.48 16.33 36.48 36.47z" fill="#ffbd86"/><path d="m205.5 172.54c0 20.15-16.33 36.48-36.48 36.48-7.11 0-13.74-2.03-19.34-5.54-1.05-5.22-1.59-10.62-1.59-16.15v-44.66c5.92-4.16 13.14-6.6 20.93-6.6 20.15 0 36.48 16.33 36.48 36.47z" fill="#f6a96c"/><path d="m345.236 136.066v51.263c0 45.547-36.923 82.47-82.47 82.47h-13.546c-45.547 0-82.47-36.923-82.47-82.47v-92.272l39.326 22.056c22.158 12.427 47.137 18.953 72.542 18.953z" fill="#ffbd86"/><g><path d="m322.472 136.066v51.263c0 44-34.459 79.943-77.861 82.335 1.526.084 3.062.135 4.609.135h13.545c45.547 0 82.47-36.923 82.47-82.47v-51.263z" fill="#f6a96c"/></g><path d="m80.19 75.545 11.289-19.749c.868-1.518 1.324-3.237 1.324-4.986v-9.359c0-3.22-2.61-5.829-5.829-5.829h-28.662c-3.22 0-5.829 2.61-5.829 5.829v9.941 21.205z" fill="#ffbd86"/><path d="m86.974 35.623h-22.764c3.219 0 5.829 2.61 5.829 5.829v9.359c0 1.749-.456 3.468-1.324 4.986l-11.046 17.353 22.521 2.395 11.289-19.749c.868-1.518 1.324-3.237 1.324-4.986v-9.359c0-3.219-2.61-5.828-5.829-5.828z" fill="#f6a96c"/><path d="m367.438 300.178 53.208-48.098c7.109-6.426 11.165-15.561 11.165-25.144v-151.391h50.569l10.86 163.55c1.411 21.25-6.487 42.064-21.64 57.029l-13.878 13.705-42.461 40.983z" fill="#ffbd86"/><path d="m493.241 239.095-10.86-163.55h-22.764l10.86 163.55c1.411 21.25-6.487 42.064-21.64 57.03l-13.878 13.705-30.553 29.49 10.856 11.493 42.461-40.983 13.878-13.705c15.153-14.966 23.051-35.78 21.64-57.03z" fill="#f6a96c"/><path d="m367.438 396.972 81.617-78.776-48.009-48.399-19.748 17.851c-8.921 8.064-20.518 12.529-32.544 12.529h-15.474z" fill="#fe99a0"/><path d="m401.046 269.798-12.002 10.849 37.247 37.549-64.637 62.387 5.784 16.389 81.617-78.776z" fill="#fd8087"/><path d="m482.381 75.545 5.367-15.015c1.442-4.034 2.179-8.285 2.179-12.569v-32.327c0-4.492-3.642-8.134-8.134-8.134h-41.7c-4.484 0-8.122 3.629-8.134 8.113l-.148 59.932z" fill="#ffbd86"/><path d="m481.793 7.5h-22.763c4.492 0 8.134 3.642 8.134 8.134v32.328c0 4.283-.737 8.535-2.179 12.569l-5.367 15.015h22.764l5.367-15.015c1.442-4.034 2.179-8.285 2.179-12.569v-32.328c-.001-4.492-3.643-8.134-8.135-8.134z" fill="#f6a96c"/><path d="m431.811 75.545-11.289-19.749c-.868-1.518-1.324-3.237-1.324-4.986v-9.359c0-3.22 2.61-5.829 5.829-5.829h28.661c3.22 0 5.829 2.61 5.829 5.829v9.941z" fill="#ffbd86"/><g><path d="m226.851 208.108c-3.123 0-5.209 3.145-4.081 6.057 1.798 4.645 4.549 8.812 8.008 12.271 6.46 6.46 15.35 10.445 25.204 10.445 15.195 0 28.154-9.497 33.282-22.881 1.091-2.847-1.093-5.893-4.142-5.893h-58.271z" fill="#fd4755"/></g><path d="m285.122 208.108h-22.763c3.048 0 5.232 3.046 4.142 5.893-3.784 9.878-11.841 17.624-21.908 21.012 3.576 1.206 7.402 1.869 11.39 1.869 15.195 0 28.154-9.497 33.282-22.881 1.089-2.847-1.094-5.893-4.143-5.893z" fill="#fb2b3a"/></g><g><path d="m500.724 238.598-8.528-128.437c-.273-4.132-3.852-7.262-7.98-6.986-4.133.274-7.261 3.847-6.986 7.98l8.528 128.437c1.268 19.092-5.813 37.752-19.427 51.196l-17.165 16.878-37.262-37.573 13.772-12.449c8.666-7.834 13.636-19.026 13.636-30.708v-151.391c-.034-1.056-.203-2.356-.988-3.722l-11.288-19.746c-.221-.386-.337-.824-.337-1.267v-7.688h25.32v6.271c0 4.142 3.357 7.5 7.5 7.5s7.5-3.358 7.5-7.5v-7.941c0-7.35-5.979-13.33-13.329-13.33h-14.26l.031-12.497c.001-.345.283-.626.63-.626h41.7c.353 0 .64.283.64.63v32.33c.628 5.431-5.306 19.727-7.112 25.065-1.395 3.9.637 8.192 4.537 9.587 2.901.954 7.409.171 9.588-4.537 3.086-9.13 8.035-19.481 7.987-30.115v-32.329c0-8.618-7.016-15.63-15.64-15.63h-41.7c-8.6 0-15.611 6.995-15.63 15.591l-.031 12.562c-7.071.316-12.731 6.151-12.731 13.299v9.358c0 3.047.799 6.057 2.313 8.708l10.301 18.02v149.397c0 7.448-3.169 14.585-8.694 19.58l-39.349 35.569c-.007.007-.014.014-.021.021-7.558 6.818-17.321 10.574-27.497 10.574h-46.05c-2.117 0-3.84-1.723-3.84-3.84v-19.107c22.918-10.078 40.864-29.44 49.042-53.302 13.559-.817 25.474-7.804 32.98-18.186l3.218 39.863c.333 4.129 3.951 7.208 8.079 6.872 4.129-.333 7.205-3.95 6.872-8.079l-11.567-143.275c-1.894-23.397-12.438-45.047-29.688-60.962-17.255-15.917-39.684-24.683-63.158-24.683h-77.29c-23.475 0-45.906 8.766-63.16 24.682-17.255 15.917-27.797 37.568-29.686 60.964l-13.416 166.182-14.704-13.292c-5.525-4.995-8.694-12.132-8.694-19.581v-149.398c3.401-7.166 12.407-18.086 12.613-26.727v-9.358c0-7.148-5.66-12.983-12.731-13.299l-.031-12.56c-.02-8.598-7.032-15.593-15.63-15.593h-41.7c-8.624 0-15.64 7.012-15.64 15.63v32.33c-.616 7.409 4.792 21.411 7.463 28.647l-10.757 161.991c-1.557 23.442 7.137 46.354 23.853 62.862l67.32 65.288-5.785 71.706c-2.456 24.401 20.126 44.136 44.442 41.555l-3.941 23.236c-.692 4.083 2.057 7.956 6.141 8.648.424.072.846.106 1.263.106 3.591 0 6.765-2.587 7.386-6.247l5.377-31.709c3.981-17.622 3.47-37.822-2.378-55.647-1.92-7.008-2.894-14.218-2.894-21.428-.448-1.169 1.065-.808-2.289-5.395l-76.147-73.493 37.612-37.917c13.774 13.568 30.985 28.385 52.013 27.517h16.48v10.08c0 29.23 23.78 53.01 53.01 53.01h15.752v33.934c0 4.142 3.358 7.5 7.5 7.5s7.5-3.358 7.5-7.5v-33.934h15.748c29.235 0 53.02-23.78 53.02-53.01v-10.08h16.49c13.909 0 27.255-5.137 37.579-14.466l14.438-13.049 37.604 37.918-75.797 73.16c-1.167 1.253-2.161 1.842-2.645 5.727 0 7.212-.974 14.421-2.893 21.423-4.671 14.555-6.552 32.227-3.691 47.973l6.689 39.39c.622 3.659 3.795 6.245 7.386 6.245.417 0 .84-.035 1.265-.107 4.084-.693 6.832-4.566 6.139-8.65l-3.946-23.234c25.956 2.654 46.239-17.704 44.447-41.553l-5.784-71.698 67.329-65.298c16.716-16.508 25.411-39.421 23.854-62.863zm-237.958 23.702h-13.546c-41.339 0-74.97-33.631-74.97-74.97v-79.467l28.158 15.792c23.227 13.026 49.58 19.912 76.21 19.912h59.117v43.763c.001 41.338-33.63 74.97-74.969 74.97zm-49.636 26.54c0 2.118-1.723 3.84-3.84 3.84l-46.044-.002c-14.332.951-28.276-10.258-38.133-20.192l6.238-77.271c6.889 11.402 18.808 19.432 32.658 21.011 8.146 23.958 26.134 43.403 49.12 53.509v19.105zm-52.965-88.709c-11.661-3.752-20.124-14.699-20.124-27.591 0-12.493 7.976-23.254 19.209-27.273v42.062c0 4.346.316 8.619.915 12.802zm191.565.645c.66-4.388 1.005-8.877 1.005-13.446v-42.767c12.352 3.318 21.475 14.603 21.475 27.977 0 13.745-9.62 25.277-22.48 28.236zm-187.369-157.088c14.476-13.354 33.295-20.708 52.99-20.708h77.29c19.693 0 38.511 7.354 52.986 20.708 14.474 13.353 23.319 31.517 24.908 51.146l3.764 46.62c-7.932-7.922-18.866-12.839-30.929-12.88-.045-.001-.089-.007-.134-.007h-66.617c-24.066 0-47.882-6.223-68.874-17.995l-39.327-22.056c-2.321-1.302-5.161-1.276-7.459.07-2.297 1.346-3.709 3.809-3.709 6.472v34.622c-9.459 2.145-17.734 7.331-23.774 14.458l3.98-49.303c1.585-19.63 10.429-37.794 24.905-51.147zm-29.37 421.322c-12.42.202-24.605-11.257-23.375-25.347l4.795-59.439 20.705 19.984c.254 7.465 1.384 14.901 3.37 22.148 4.15 12.904 5.938 28.528 3.165 42.654zm-72.16-157.348-17.161-16.874c-13.613-13.444-20.694-32.104-19.426-51.196l10.86-163.549c-.065-1.15.204-.887-.424-3.026-2.23-7.048-7.122-16.906-7.109-25.057v-32.33c0-.347.287-.63.64-.63h41.7c.347 0 .629.281.63.628l.031 12.494h-14.259c-7.35 0-13.33 5.979-13.33 13.33v7.941c0 4.142 3.358 7.5 7.5 7.5s7.5-3.358 7.5-7.5v-6.271h25.32v7.688c.329 1.174-11.072 19.527-11.625 21.013-.493.934-.993 2.14-.989 3.722v151.391c0 11.682 4.97 22.874 13.636 30.708l13.772 12.45zm254.429 10.098c0 20.959-17.056 38.01-38.02 38.01h-23.228c-.007 0-.013-.001-.019-.001s-.013.001-.019.001h-23.233c-20.959 0-38.01-17.051-38.01-38.01v-10.08h14.56c9.599.099 18.853-8.47 18.84-18.84v-14.043c6.768 1.632 13.828 2.503 21.09 2.503h13.546c7.263 0 14.326-.871 21.095-2.504v14.044c0 10.129 8.04 18.394 18.071 18.801.599.102 14.009.008 15.328.039v10.08zm83.115 121.902c1.11 19.417-16.399 27.295-32.043 25.348-2.705-13.085-1.149-29.307 3.172-42.648 1.985-7.246 3.116-14.68 3.37-22.142l20.706-19.986z"/><path d="m285.123 200.608h-58.271c-3.92 0-7.582 1.929-9.795 5.159-2.232 3.257-2.711 7.409-1.281 11.105 5.629 15.369 22.569 27.844 40.208 27.51 17.749 0 33.938-11.13 40.286-27.699 1.386-3.618.896-7.692-1.311-10.898-2.231-3.242-5.908-5.177-9.836-5.177zm-29.141 28.773c-9.24-.142-18.795-4.741-24.203-13.773h48.397c-5.011 8.392-14.225 13.773-24.194 13.773z"/><path d="m256.004 185.097c4.143 0 7.5-3.358 7.5-7.5v-10.806c0-4.142-3.357-7.5-7.5-7.5-4.142 0-7.5 3.358-7.5 7.5v10.806c0 4.142 3.358 7.5 7.5 7.5z"/></g></g></svg>